inDegrees=no
num_controls=7
num_derivatives=13
num_iterations=105
num_multipliers=7
num_parameters=0
num_slacks=7
num_states=26
objective=0.440054
objective_accelerations=0.056326
objective_balance=0.007079
objective_effort=0.038249
objective_height=0.334618
objective_ligament=0.003783
solver_duration=1520.583601
status=Solve_Succeeded
success=true
DataType=double
version=3
OpenSimVersion=4.5
endheader
time	/jointset/ground_pelvis/pelvis_tilt/value	/jointset/ground_pelvis/pelvis_tx/value	/jointset/ground_pelvis/pelvis_ty/value	/jointset/hip_l/hip_flexion_l/value	/jointset/hip_l/hip_adduction_l/value	/jointset/hip_l/hip_rotation_l/value	/jointset/back/lumbar_extension/value	/jointset/patellofemoral_l/patellar_flexion_l/value	/jointset/knee_l/knee_flexion_l/value	/jointset/knee_l/knee_adduction_l/value	/jointset/knee_l/knee_rotation_l/value	/jointset/ankle_l/ankle_angle_l/value	/jointset/subtalar_l/subtalar_angle_l/value	/jointset/ground_pelvis/pelvis_tilt/speed	/jointset/ground_pelvis/pelvis_tx/speed	/jointset/ground_pelvis/pelvis_ty/speed	/jointset/hip_l/hip_flexion_l/speed	/jointset/hip_l/hip_adduction_l/speed	/jointset/hip_l/hip_rotation_l/speed	/jointset/back/lumbar_extension/speed	/jointset/patellofemoral_l/patellar_flexion_l/speed	/jointset/knee_l/knee_flexion_l/speed	/jointset/knee_l/knee_adduction_l/speed	/jointset/knee_l/knee_rotation_l/speed	/jointset/ankle_l/ankle_angle_l/speed	/jointset/subtalar_l/subtalar_angle_l/speed	/forceset/tau_hip_flexion_l	/forceset/tau_hip_adduction_l	/forceset/tau_hip_rotation_l	/forceset/tau_knee_flexion_l	/forceset/tau_ankle_angle_l	/forceset/tau_subtalar_angle_l	/forceset/tau_lumbar_extension	lambda_cid13_p0	lambda_cid13_p1	lambda_cid13_p2	lambda_cid13_p3	lambda_cid13_p4	lambda_cid13_p5	lambda_cid14_p0	/jointset/ground_pelvis/pelvis_tilt/accel	/jointset/ground_pelvis/pelvis_tx/accel	/jointset/ground_pelvis/pelvis_ty/accel	/jointset/hip_l/hip_flexion_l/accel	/jointset/hip_l/hip_adduction_l/accel	/jointset/hip_l/hip_rotation_l/accel	/jointset/back/lumbar_extension/accel	/jointset/patellofemoral_l/patellar_flexion_l/accel	/jointset/knee_l/knee_flexion_l/accel	/jointset/knee_l/knee_adduction_l/accel	/jointset/knee_l/knee_rotation_l/accel	/jointset/ankle_l/ankle_angle_l/accel	/jointset/subtalar_l/subtalar_angle_l/accel	gamma_cid13_p0	gamma_cid13_p1	gamma_cid13_p2	gamma_cid13_p3	gamma_cid13_p4	gamma_cid13_p5	gamma_cid14_p0
1.5	-0.4419770975866334	-0.07426119031408401	0.737610997195132	1.354244654488166	-0.3083099560980836	0.004591453091725679	-0.3555290521754558	0.8252533707832571	0.8252533707835826	-0.1722441806907856	0.1725401637338763	0.08935858150363386	-0.03867215451185773	0.6894956111875712	0.2381501004343553	0.5941800557974016	-2.55581712421867	-0.01141109258871523	-0.7281943255697367	0.5554782069987502	-2.1009154202219	-2.100915420220211	0.009713805738283928	-0.01475125684479398	-0.3547259730763328	-0.05851568205641661	-0.2514716047287501	0.01655337922645318	-0.02336366025644085	-0.228809661498878	0.136136826075624	0.03812258126181714	0.2285110627904527	5.111327151005211	-19.67384696939884	5.27247840442113	-6.998302208780655	-608.1561379067836	-54.97837904245471	-20.09142516899859	0.807807984429507	0.7849008899650927	-0.3942412054556154	-1.724457573446769	0.7587789281955556	-0.3237120649269503	1.928206174032159	-1.386968123885856	-1.386968123885892	0.02279266063393052	-0.05127139650879944	-0.4652238978875057	0.7354763021648186	4.107902630028561e-07	7.139436422976647e-07	-2.29081280352343e-06	-2.163643900018064e-07	4.895387881154655e-07	-2.32130857950932e-07	4.31684150161562e-07
1.51	-0.4350420630211276	-0.07184062628933301	0.7435318685042381	1.328602735606989	-0.3083874922416098	-0.002704105665325687	-0.3498795634655931	0.8041773272316471	0.8041773272317699	-0.1721499171076827	0.1723903759326759	0.08578827087685705	-0.03922213104022964	0.6974046263191734	0.2459353994631235	0.5898664619283478	-2.572194360137514	-0.004079094647495477	-0.7308175940696874	0.5743258498330753	-2.113982234376918	-2.113982234376134	0.009129208096115841	-0.0152109534383932	-0.3592580090985135	-0.05146261163067743	-0.2429459692215279	0.01627000553584246	-0.02332844810227004	-0.2267514739072823	0.1366534784837379	0.03789248752621407	0.2217744462192339	5.584876148372286	-19.7658612747584	5.411684567994752	-7.112642806368148	-602.5930233005499	-55.28244948889341	-21.38623121708505	0.7664971514434732	0.7712019821120069	-0.4689689894603089	-1.538449417415854	0.7232124590115535	-0.2162350915673641	1.84899056702269	-1.219973973294136	-1.219973973429896	-0.1004877500138035	-0.04349506154219916	-0.4354772580216047	0.6929275380425735	4.43558734898076e-07	8.033436821752643e-07	-2.406052134476322e-06	-2.275725600046138e-07	5.3308141854238e-07	-1.763190867809556e-07	4.57865112190143e-07
1.52	-0.4280311285295218	-0.06934303775973844	0.7494057937722878	1.302808225803362	-0.3083911479593381	-0.01002281727718398	-0.3440444088816089	0.7829799283560903	0.7829799283560008	-0.1720617798556764	0.1722359559113872	0.08217498312913089	-0.03970103583929134	0.7046755964074894	0.2535550014030679	0.5847908475860951	-2.586335308708862	0.003364992570778517	-0.7328248965311678	0.5926113818229991	-2.125186485011309	-2.12518648501143	0.008488539519083273	-0.01567770086226075	-0.3633213972662244	-0.04430133619437383	-0.2344203337143033	0.01598663184523368	-0.02329323594811548	-0.2246932863156841	0.1371701308918525	0.03766239379061323	0.2150378296480171	6.053462797482792	-19.85997787498886	5.554621267370403	-7.237847553282424	-597.1270825259755	-55.6788669967093	-22.67630830904466	0.6801989757722881	0.7517614722003034	-0.5466453000953484	-1.277200103947402	0.7811967836064058	-0.2005188572329238	1.815784005151885	-1.014455419760409	-1.014455419760424	0.01157847366103546	-0.05268156256246846	-0.371494326993523	0.7571173042777003	4.75816988497004e-07	8.848435936400711e-07	-2.518247950234669e-06	-2.39704512969626e-07	5.776722618157149e-07	-1.162612391123964e-07	4.823729780308224e-07
1.53	-0.4209506697605283	-0.06677017329411324	0.7552252232876056	1.276883426311429	-0.308320047735856	-0.01735859611934817	-0.3380293977826487	0.7616797708642121	0.7616797708641276	-0.1719805866428987	0.1720769194057162	0.07852335277025196	-0.04010805317437807	0.7113040422694084	0.260980765177818	0.578972439620781	-2.598237169777237	0.01086388639998891	-0.7342407128740378	0.610284492364915	-2.134517367353078	-2.13451736735383	0.00774780479904174	-0.01612324760461019	-0.3669209430998716	-0.03709314720376328	-0.225932668700781	0.01553634661634022	-0.02320166867790869	-0.2225938035181099	0.1375031640410789	0.03726276324757305	0.2082723073007949	6.450261797739744	-19.86503439351005	5.680090039035828	-7.234372139379748	-591.7571498841924	-55.94740568749201	-23.9595235045752	0.6374066501107316	0.7323628808005896	-0.6177013542694644	-1.088494308172882	0.7358163085546434	-0.09811874184746318	1.727122738094167	-0.8433611940742184	-0.843361194168854	-0.1171889448419621	-0.03897284410963849	-0.3416259666632876	0.7041723890905797	5.07533135156122e-07	9.579496186662856e-07	-2.627210031098812e-06	-2.528179853319808e-07	6.233768312383713e-07	-5.169193516409299e-08	5.051031791718566e-07
